<?xml version="1.0" encoding="utf-8"?>
<!-- Generator: Adobe Illustrator 20.0.0, SVG Export Plug-In . SVG Version: 6.00 Build 0)  -->
<svg version="1.1" id="Capa_1" xmlns="http://www.w3.org/2000/svg" xmlns:xlink="http://www.w3.org/1999/xlink" x="0px" y="0px"
	 viewBox="0 0 500 500" style="enable-background:new 0 0 500 500;" xml:space="preserve">
<style type="text/css">
	.st0{opacity:0.8;fill:none;stroke:#ECEDEF;stroke-width:12;stroke-miterlimit:10;}
	.st1{fill:none;stroke:#00CD1B;stroke-width:12;stroke-miterlimit:10;}
</style>
<g>
	<path class="st0" d="M200.3,186.1c-4.1-1.7-8.8-0.8-11.9,2.4l-140.5,140c-4.3,4.3-4.3,11.2,0,15.5l140,140.5
		c2.1,2.1,4.9,3.2,7.8,3.2c1.4,0,2.8-0.3,4.2-0.8c4.1-1.7,6.8-5.7,6.8-10.1l0.4-280.5C207.1,191.8,204.4,187.8,200.3,186.1z"/>
	<path class="st0" d="M486.8,192.6c-1.7-4.1-5.7-6.8-10.1-6.8l-280.5-0.4c0,0,0,0,0,0c-4.4,0-8.4,2.7-10.1,6.7
		c-1.7,4.1-0.8,8.8,2.4,11.9l140,140.5c2.1,2.2,4.9,3.2,7.8,3.2c2.8,0,5.6-1.1,7.7-3.2l140.5-140
		C487.6,201.3,488.5,196.6,486.8,192.6z"/>
	<path class="st0" d="M300,363l-94.4-172.1c-2.1-3.9-6.4-6.1-10.8-5.6c-4.4,0.5-8.1,3.6-9.3,7.8l-39,133.9
		c-1.7,5.8,1.6,11.9,7.4,13.6l133.9,39.1c1,0.3,2,0.4,3.1,0.4c0,0,0.1,0,0.1,0c6,0,10.9-4.9,10.9-10.9
		C301.9,366.9,301.2,364.8,300,363z"/>
	<path class="st0" d="M207.2,195.8c-0.5-4.4-3.6-8.1-7.8-9.3L65.4,147.4c-5.8-1.7-11.9,1.6-13.6,7.4L12.8,288.8
		c-1.2,4.3,0.2,8.8,3.7,11.6c2,1.6,4.4,2.4,6.9,2.4c1.8,0,3.6-0.5,5.3-1.4l173-94.9C205.4,204.5,207.6,200.2,207.2,195.8z"/>
	<path class="st0" d="M238.2,51.8L104.3,12.8c-4.3-1.3-8.8,0.2-11.6,3.7c-2.8,3.4-3.2,8.2-1.1,12.1l94.9,173
		c1.9,3.5,5.6,5.7,9.6,5.7c0.4,0,0.8,0,1.2-0.1c4.4-0.5,8.1-3.6,9.3-7.8l39.1-133.9C247.4,59.6,244,53.5,238.2,51.8z"/>
	<path class="st1" d="M375.9,92.8c-3.5-2.8-8.2-3.2-12.1-1.1l-173,94.9c-3.9,2.1-6.1,6.4-5.6,10.8c0.5,4.4,3.6,8.1,7.8,9.3
		L327,245.8c1,0.3,2.1,0.4,3.1,0.4c4.7,0,9.1-3.1,10.5-7.9l39.1-133.9C380.8,100.2,379.4,95.6,375.9,92.8z"/>
</g>
</svg>
