<?xml version="1.0" encoding="iso-8859-1"?>
<!-- Generator: Adobe Illustrator 18.0.0, SVG Export Plug-In . SVG Version: 6.00 Build 0)  -->
<!DOCTYPE svg PUBLIC "-//W3C//DTD SVG 1.1//EN" "http://www.w3.org/Graphics/SVG/1.1/DTD/svg11.dtd">
<svg version="1.1" id="Capa_1" xmlns="http://www.w3.org/2000/svg" xmlns:xlink="http://www.w3.org/1999/xlink" x="0px" y="0px"
	 viewBox="0 0 291.941 291.941" style="enable-background:new 0 0 291.941 291.941;" xml:space="preserve">
<g>
	<path d="M205.222,173.102h0.004c23.045,0,41.799-18.763,41.801-41.823V96.955c0-4.142-3.357-7.5-7.5-7.5l-34.302-0.002
		c-23.053,0-41.808,18.762-41.808,41.823l0.002,26.826H152.43V83.648l26.805,0.001h0.004h0.001c23.045,0,41.8-18.763,41.802-41.822
		V7.502c0-4.142-3.357-7.5-7.5-7.5L179.237,0c-23.052,0-41.806,18.762-41.806,41.823v9.313c0,0.016-0.002,0.032-0.002,0.049v78.313
		h-8.906v-26.821c0.001-11.172-4.347-21.676-12.241-29.576c-7.896-7.9-18.395-12.252-29.562-12.253l-34.306-0.001
		c-1.989,0-3.896,0.79-5.304,2.196c-1.406,1.407-2.196,3.314-2.196,5.304v34.327c0.005,23.062,18.759,41.824,41.806,41.824h50.709
		v43.516H59.173c-4.143,0-7.5,3.357-7.5,7.5v88.927c0,4.143,3.357,7.5,7.5,7.5h171.518c4.143,0,7.5-3.357,7.5-7.5v-88.927
		c0-4.143-3.357-7.5-7.5-7.5H152.43v-14.912H205.222z M86.721,129.499c-14.777,0-26.803-12.035-26.806-26.826V75.848l26.806,0.001
		c7.158,0,13.889,2.79,18.951,7.856c5.063,5.067,7.853,11.805,7.852,18.972v26.822H86.721z M203.9,203.015l19.291,19.73v34.466
		l-19.292,19.73H85.965l-19.292-19.73v-34.466l19.291-19.73H203.9z M179.235,68.649l-26.802-0.002l-0.002-26.824
		c0-14.79,12.025-26.823,26.806-26.823l26.804,0.002v26.824c-0.002,14.791-12.024,26.823-26.802,26.823H179.235z M205.223,158.102
		l-26.804-0.002l-0.002-26.825c0-14.79,12.025-26.822,26.808-26.822l26.802,0.002v26.823c-0.002,14.791-12.024,26.824-26.8,26.824
		H205.223z"/>
	<path d="M144.929,269.711c16.413,0,29.766-13.341,29.766-29.738c0-16.391-13.353-29.726-29.766-29.726
		c-16.406,0-29.754,13.335-29.754,29.726C115.175,256.37,128.522,269.711,144.929,269.711z M144.929,225.247
		c8.142,0,14.766,6.605,14.766,14.726c0,8.127-6.624,14.738-14.766,14.738c-8.136,0-14.754-6.611-14.754-14.738
		C130.175,231.852,136.793,225.247,144.929,225.247z"/>
</g>
<g>
</g>
<g>
</g>
<g>
</g>
<g>
</g>
<g>
</g>
<g>
</g>
<g>
</g>
<g>
</g>
<g>
</g>
<g>
</g>
<g>
</g>
<g>
</g>
<g>
</g>
<g>
</g>
<g>
</g>
</svg>
