<?xml version="1.0" encoding="utf-8"?>
<!-- Generator: Adobe Illustrator 20.0.0, SVG Export Plug-In . SVG Version: 6.00 Build 0)  -->
<svg version="1.1" id="Capa_1" xmlns="http://www.w3.org/2000/svg" xmlns:xlink="http://www.w3.org/1999/xlink" x="0px" y="0px"
	 viewBox="0 0 291.9 291.9" style="enable-background:new 0 0 291.9 291.9;" xml:space="preserve">
<g>
	<g>
		<path d="M221,81.6h-29c-9.2-8.2-26.6-13.3-46-13.3s-36.7,5.1-46,13.3H71c-39.1,0-71,31.8-71,71c0,39.1,31.8,71,71,71
			c39.1,0,71-31.8,71-71c0-0.5,0-1,0-1.6h8.1c0,0.5,0,1,0,1.6c0,39.1,31.8,71,71,71c39.1,0,71-31.8,71-71
			C291.9,113.5,260.1,81.6,221,81.6z M71,194.7c-23.2,0-42.1-18.9-42.1-42.1s18.9-42.1,42.1-42.1s42.1,18.9,42.1,42.1
			S94.2,194.7,71,194.7z M165,109.1h-38.2c-4.5,0-8.2-3.7-8.2-8.2c0-4.5,3.7-8.2,8.2-8.2H165c4.5,0,8.2,3.7,8.2,8.2
			C173.3,105.4,169.6,109.1,165,109.1z M221,194.7c-23.2,0-42.1-18.9-42.1-42.1s18.9-42.1,42.1-42.1c23.2,0,42.1,18.9,42.1,42.1
			S244.2,194.7,221,194.7z"/>
	</g>
</g>
</svg>
