<?xml version="1.0" encoding="utf-8"?>
<!-- Generator: Adobe Illustrator 20.0.0, SVG Export Plug-In . SVG Version: 6.00 Build 0)  -->
<svg version="1.1" id="Capa_1" xmlns="http://www.w3.org/2000/svg" xmlns:xlink="http://www.w3.org/1999/xlink" x="0px" y="0px"
	 viewBox="0 0 291.9 291.9" style="enable-background:new 0 0 291.9 291.9;" xml:space="preserve">
<g>
	<g id="Statics">
		<g>
			<path d="M289.3,15.8c2.8-4.2,1.6-9.7-2.5-12.5c-4.2-2.7-9.7-1.6-12.5,2.6L241,56.3c-1.4-0.2-2.8-0.4-4.2-0.4
				c-14.9,0-27,12.1-27,27c0,2.9,0.6,5.6,1.4,8.2l-32.2,41.1c-4.2-2.6-9-4.2-14.3-4.2c-14.5,0-26.4,11.6-26.9,26l-50.9,29.7
				c-5-6.4-12.6-10.6-21.3-10.6c-14.9,0-27,12.1-27,27c0,5.9,1.9,11.3,5.1,15.7L3.9,276.2c-2.7,4.2-1.6,9.8,2.6,12.5
				c1.5,1,3.2,1.5,4.9,1.5c2.9,0,5.8-1.4,7.5-4.1L58.4,226c2.3,0.6,4.7,1.1,7.1,1.1c14.5,0,26.4-11.5,26.9-26l50.9-29.6
				c4.9,6.4,12.6,10.5,21.3,10.5c14.9,0,27-12.1,27-27c0-2.9-0.6-5.6-1.4-8.2l32.2-41c4.2,2.6,9,4.2,14.3,4.2c14.9,0,27-12.1,27-27
				c0-6.9-2.7-13.1-6.9-17.9L289.3,15.8z M65.5,209.1c-5,0-9-4-9-9c0-5,4-9,9-9s9,4,9,9C74.5,205,70.5,209.1,65.5,209.1z M164.7,164
				c-5,0-9-4-9-9c0-5,4-9,9-9s9,4,9,9C173.7,160,169.6,164,164.7,164z M236.7,91.9c-5,0-9-4-9-9c0-5,4-9,9-9s9,4,9,9
				C245.8,87.9,241.7,91.9,236.7,91.9z M56.5,272.1c-5,0-9,4-9,9c0,5,4,9,9,9s9-4,9-9C65.5,276.2,61.5,272.1,56.5,272.1z
				 M101.6,272.1c-5,0-9,4-9,9c0,5,4,9,9,9c5,0,9-4,9-9C110.6,276.2,106.6,272.1,101.6,272.1z M146.6,272.1c-5,0-9,4-9,9
				c0,5,4,9,9,9s9-4,9-9C155.6,276.2,151.6,272.1,146.6,272.1z M191.7,272.1c-5,0-9,4-9,9c0,5,4,9,9,9c5,0,9-4,9-9
				C200.7,276.2,196.7,272.1,191.7,272.1z M236.7,272.1c-5,0-9,4-9,9c0,5,4,9,9,9c5,0,9-4,9-9C245.8,276.2,241.7,272.1,236.7,272.1z
				 M281.8,272.1c-5,0-9,4-9,9c0,5,4,9,9,9c5,0,9-4,9-9C290.8,276.2,286.8,272.1,281.8,272.1z M11.4,245.1c5,0,9-4,9-9c0-5-4-9-9-9
				s-9,4-9,9C2.4,241.1,6.5,245.1,11.4,245.1z M11.4,200c5,0,9-4,9-9c0-5-4-9-9-9s-9,4-9,9C2.4,196,6.5,200,11.4,200z M11.4,155
				c5,0,9-4,9-9c0-5-4-9-9-9s-9,4-9,9C2.4,150.9,6.5,155,11.4,155z M11.4,109.9c5,0,9-4,9-9c0-5-4-9-9-9s-9,4-9,9
				C2.4,105.9,6.5,109.9,11.4,109.9z M11.4,64.9c5,0,9-4,9-9c0-5-4-9-9-9s-9,4-9,9C2.4,60.8,6.5,64.9,11.4,64.9z M11.4,19.8
				c5,0,9-4,9-9c0-5-4-9-9-9s-9,4-9,9C2.4,15.8,6.5,19.8,11.4,19.8z"/>
		</g>
	</g>
</g>
</svg>
